<?xml version="1.0" encoding="UTF-8" standalone="no"?>
<svg width="518px" height="145px" viewBox="0 0 518 145" version="1.1" xmlns="http://www.w3.org/2000/svg" xmlns:xlink="http://www.w3.org/1999/xlink">
    <!-- Generator: Sketch 45 (43475) - http://www.bohemiancoding.com/sketch -->
    <title>Wordmark Anatomy</title>
    <desc>Created with Sketch.</desc>
    <defs></defs>
    <g id="brand.utexas.edu" stroke="none" stroke-width="1" fill="none" fill-rule="evenodd">
        <g id="Brand---Identity---Logos" transform="translate(-205.000000, -464.000000)">
            <g id="Primary-Signature-Anatomy" transform="translate(53.000000, 216.000000)">
                <g id="Wordmark-Anatomy" transform="translate(120.000000, 167.000000)">
                    <g id="Group">
                        <g id="dot-1-wordmark" transform="translate(32.000000, 81.000000)">
                            <circle id="Oval" fill="#858C91" cx="18" cy="18" r="18"></circle>
                            <text id="1." font-family="OpenSans-Bold, Open Sans" font-size="18" font-weight="bold" fill="#FFFFFF">
                                <tspan x="12" y="24">1.</tspan>
                            </text>
                        </g>
                        <g id="dot-2-wordmark" transform="translate(514.000000, 81.000000)">
                            <circle id="Oval" fill="#858C91" cx="18" cy="18" r="18"></circle>
                            <text id="2." font-family="OpenSans-Bold, Open Sans" font-size="18" font-weight="bold" fill="#FFFFFF">
                                <tspan x="12" y="24">2.</tspan>
                            </text>
                        </g>
                        <g id="dot-3-wordmark" transform="translate(139.000000, 190.000000)">
                            <circle id="Oval" fill="#858C91" cx="18" cy="18" r="18"></circle>
                            <text id="3." font-family="OpenSans-Bold, Open Sans" font-size="18" font-weight="bold" fill="#FFFFFF">
                                <tspan x="12" y="24">3.</tspan>
                            </text>
                        </g>
                        <g id="Primary-Wordmark-Horizontal" fill-rule="nonzero" fill="#BF5700">
                            <g id="RGB_university_primary" transform="translate(75.000000, 98.000000)">
                                <g id="TheUniversityOfTexasAtAustin" transform="translate(108.000000, 101.000000)">
                                    <g id="Austin" transform="translate(262.806277, 0.000000)">
                                        <path d="M5.50559794,11.2710475 L3.95714852,15.5867274 L6.02174774,15.880026 L5.89271029,16.6761223 L3.05388636,16.5923227 L0.516149807,16.6761223 L0.387112355,15.880026 L2.23664916,15.6286272 L8.08634697,0.712296682 L9.50575894,0.335198439 L15.6995566,15.670527 L17.5490934,15.9219258 L17.420056,16.7180221 L14.1511072,16.6342225 L11.0111959,16.7180221 L10.8821584,15.9219258 L12.9037452,15.6286272 L11.3122833,11.3129473 L5.50559794,11.3129473 L5.50559794,11.2710475 Z M8.64550926,4.10618087 L8.47345933,2.84918673 L5.84969781,10.1816526 L10.8821584,10.1816526 L8.64550926,4.10618087 Z" id="Shape"></path>
                                        <path d="M27.6570271,13.7012362 C27.6570271,14.7068315 27.7860646,15.0420299 27.9581145,15.4191282 L29.1624641,15.4191282 L29.248489,16.2152245 L26.1946027,16.8018217 L25.5494154,14.9163305 L22.1084167,17.0113208 C18.9685054,17.0113208 18.4523556,15.9219258 18.4523556,13.2403383 L18.4523556,7.20676643 L16.7748687,7.33246584 L16.6458313,6.45256994 L19.4846552,5.86597267 L20.6459923,5.78217306 L20.6459923,13.4498373 C20.6459923,14.6649317 21.1621421,15.1677293 22.3234791,15.1677293 C23.0546914,15.1677293 24.000966,14.5811321 24.9042282,13.9945348 L25.3773655,13.7012362 L25.3773655,7.20676643 L23.9579535,7.33246584 L23.8289161,6.45256994 L26.4526776,5.86597267 L27.6570271,5.78217306 L27.6570271,13.7012362 L27.6570271,13.7012362 Z" id="Shape"></path>
                                        <path d="M36.6466363,7.12296682 C36.4315738,6.9972674 35.7003616,6.62016916 34.8401119,6.62016916 C33.9368498,6.62016916 33.0335876,7.12296682 33.0335876,7.96096291 C33.0335876,8.7151594 33.6357624,9.17605725 34.668062,9.67885491 L36.4745863,10.5587508 C38.0660482,11.3548471 38.7112355,12.234743 38.7112355,13.533637 C38.7112355,15.6286272 36.9907361,16.3828237 34.2809497,16.9694209 C32.8185252,16.9694209 31.3130883,16.2571243 30.667901,15.9219258 L30.2377762,13.3241379 L31.7432131,13.3241379 L32.5604503,15.251529 C33.0766001,15.5867274 33.7647998,15.8381262 34.4960121,15.8381262 C35.7433741,15.8381262 36.3885614,15.0420299 36.3885614,14.0783344 C36.3885614,13.1984385 35.8724116,12.7794405 34.668062,12.1509434 L32.8185252,11.1872479 C31.7862256,10.6844502 30.8399509,9.80455433 30.8399509,8.50566038 C30.8399509,6.91346779 32.3884004,5.99167209 35.1411993,5.40507482 C36.4315738,5.40507482 37.8079733,5.94977228 38.4961731,6.45256994 L38.4961731,8.75705921 L37.248811,8.75705921 L36.6466363,7.12296682 Z" id="Shape"></path>
                                        <path d="M39.5284727,7.16486662 L39.5284727,6.78776838 L40.3457099,5.99167209 L41.8941593,5.99167209 L41.8941593,4.48327912 L43.4426087,2.97488614 L44.0447835,2.97488614 L44.0447835,6.1173715 L47.6148197,6.1173715 L47.6148197,7.16486662 L44.087796,7.16486662 L44.087796,13.9107352 C44.087796,14.5811321 44.3458709,15.2934288 45.335158,15.2934288 C46.0233578,15.2934288 46.5395076,15.0420299 47.1846948,14.7487313 L47.5718072,15.5448276 L44.8190082,17.0532206 C42.1522342,17.0532206 41.8081343,16.1314249 41.8081343,14.0364346 L41.8081343,7.16486662 L39.5284727,7.16486662 Z" id="Shape"></path>
                                        <path d="M51.7870306,16.6342225 L49.0772441,16.7180221 L48.9482067,15.9219258 L50.582681,15.7124268 L50.582681,7.29056604 L48.9482067,7.41626545 L48.8191692,6.62016916 L51.6579931,5.90787248 L52.8193302,5.82407287 L52.8193302,15.7124268 L54.582842,15.9219258 L54.4538046,16.7180221 L51.7870306,16.6342225 Z M50.6256935,0.754196487 L52.3461929,0.628497072 L52.9913801,0.754196487 L53.1204176,2.05309044 L52.8623427,3.14248536 L51.1848558,3.26818478 L50.5396686,3.14248536 L50.4106311,1.84359141 L50.6256935,0.754196487 Z" id="Shape"></path>
                                        <path d="M58.5399906,16.6342225 L55.8302041,16.7180221 L55.7011666,15.9219258 L57.335641,15.7124268 L57.335641,7.29056604 L55.7011666,7.41626545 L55.5721292,6.62016916 L58.4109531,5.90787248 L59.4432527,5.82407287 L59.5722902,7.75146389 L63.0563014,5.53077424 C66.0671752,5.53077424 66.5833251,6.53636955 66.5833251,9.30175667 L66.5833251,15.7124268 L68.3898494,15.9219258 L68.2608119,16.7180221 L65.5510254,16.6342225 L63.2713638,16.7180221 L63.1423263,15.9219258 L64.3466759,15.7124268 L64.3466759,9.13415745 C64.3466759,7.91906311 63.7875136,7.41626545 62.7982265,7.41626545 C61.9809893,7.41626545 61.1637521,7.91906311 60.3465149,8.46376057 L59.6153027,8.92465843 L59.6153027,15.7543266 L60.9056772,15.9638256 L60.7766397,16.7599219 L58.5399906,16.6342225 Z" id="Shape"></path>
                                    </g>
                                    <g id="at" transform="translate(240.009660, 2.932986)">
                                        <path d="M4.94643565,2.55588809 C7.91429703,2.55588809 8.68852174,3.31008458 8.68852174,6.20117111 L8.68852174,10.72635 C8.68852174,11.7319453 8.86057168,12.0671438 9.0756341,12.444242 L10.2799836,12.444242 L10.3660086,13.2403383 L7.31212226,13.8269356 L6.58091003,12.0671438 L3.78509858,14.0783344 C1.76351184,14.0783344 0.301087387,12.9889395 0.301087387,11.1453481 C0.301087387,10.307352 0.602174774,9.72075472 1.11832458,9.00845804 L6.45187258,7.29056604 L6.45187258,6.15927131 C6.45187258,4.77657775 6.32283513,3.93858165 5.0754731,3.93858165 C4.43028584,3.93858165 3.65606113,4.14808068 3.13991132,4.3575797 L2.75279897,6.20117111 L0.731212226,6.20117111 L0.731212226,4.44137931 L4.94643565,2.55588809 Z M6.4088601,8.21236174 L2.96786139,9.5950553 C2.62376152,9.93025374 2.49472407,10.3911516 2.49472407,10.8939493 C2.49472407,12.0671438 3.18292381,12.4861418 3.87112355,12.4861418 C4.51631081,12.4861418 5.11848558,12.1090436 5.41957297,11.8995446 L6.4088601,11.2291477 L6.4088601,8.21236174 Z" id="Shape"></path>
                                        <path d="M10.2369712,4.23188029 L10.2369712,3.85478204 L11.0542084,3.05868575 L12.6026578,3.05868575 L12.6026578,1.55029278 L14.1511072,0.0418998048 L14.753282,0.0418998048 L14.753282,3.18438517 L18.3233181,3.18438517 L18.3233181,4.23188029 L14.753282,4.23188029 L14.753282,10.9777489 C14.753282,11.6481457 15.0113569,12.3604424 16.000644,12.3604424 C16.6888437,12.3604424 17.2049936,12.1090436 17.8931933,11.815745 L18.2803057,12.6118412 L15.5275067,14.1202342 C12.8607327,14.1202342 12.5166328,13.1984385 12.5166328,11.1034483 L12.5166328,4.23188029 L10.2369712,4.23188029 Z" id="Shape"></path>
                                    </g>
                                    <g id="Texas" transform="translate(177.211434, 0.418998)">
                                        <polygon id="Shape" points="10.7101085 16.2990241 6.88199742 16.2152245 2.9248489 16.2990241 2.79581145 15.5029278 5.63463539 15.2096291 5.63463539 1.25699414 2.06459923 1.29889395 0.989287129 4.23188029 0.0430124839 4.23188029 0.0430124839 0.167599219 6.83898494 0.251398829 13.6349574 0.167599219 13.6349574 4.23188029 12.7316952 4.23188029 11.6563831 1.29889395 8.08634697 1.25699414 8.08634697 15.2096291 10.7961335 15.5029278"></polygon>
                                        <path d="M14.9253319,10.3911516 C14.9253319,13.0308393 16.3877564,14.8744307 18.8394679,14.8744307 C19.7857426,14.8744307 20.9040672,14.4554327 21.8073293,13.9107352 L22.1944417,14.7906311 C21.0761171,15.5448276 19.5706802,16.2152245 18.0652432,16.5923227 C15.1834068,16.5923227 12.6456703,14.6230319 12.6456703,10.9777489 C12.6456703,7.58386467 14.753282,5.74027326 17.9792183,5.06987638 C21.1191296,5.06987638 22.1514292,6.9972674 22.1514292,9.38555628 L22.1514292,10.3492518 L14.9253319,10.3492518 L14.9253319,10.3911516 Z M19.6567051,9.21795706 C19.6567051,7.45816526 19.3126053,6.20117111 17.4630685,6.20117111 C16.0436565,6.20117111 15.0973818,7.50006506 14.9253319,9.42745608 L19.6567051,9.21795706 Z" id="Shape"></path>
                                        <polygon id="Shape" points="27.5279897 15.461028 27.3989522 16.2571243 25.5494154 16.1733247 23.0977038 16.2571243 22.9686664 15.461028 24.6461533 15.251529 28.1301645 11.0615485 24.6891657 6.49446975 23.2267413 6.24307092 23.3557787 5.40507482 26.0655652 5.48887443 28.3022144 5.40507482 28.4312518 6.24307092 27.4849772 6.49446975 29.248489 9.05035784 29.420539 9.63695511 31.6571881 6.49446975 30.4958511 6.24307092 30.6248885 5.40507482 32.4744253 5.48887443 34.9261369 5.40507482 35.0551744 6.24307092 33.334675 6.49446975 30.1947637 10.1816526 33.8938373 15.2934288 35.3562618 15.5029278 35.2272243 16.2990241 32.5174378 16.2152245 30.2807887 16.2990241 30.1517512 15.5029278 31.1410383 15.2934288 29.0334266 12.3185426 28.8613767 11.7738452 26.3666526 15.2934288"></polygon>
                                        <path d="M40.9478847,5.06987638 C43.915746,5.06987638 44.6899708,5.82407287 44.6899708,8.7151594 L44.6899708,13.2403383 C44.6899708,14.2459336 44.8620207,14.5811321 45.0770831,14.9582303 L46.2384202,14.9582303 L46.3244451,15.7543266 L43.2705588,16.3409239 L42.5393466,14.5811321 L39.7005226,16.5923227 C37.6789359,16.5923227 36.2165114,15.5029278 36.2165114,13.6593364 C36.2165114,12.8213403 36.5175988,12.234743 37.0337486,11.5224463 L42.3672966,9.80455433 L42.3672966,8.6732596 C42.3672966,7.29056604 42.2382592,6.45256994 40.9908971,6.45256994 C40.3457099,6.45256994 39.5714852,6.66206897 39.0553354,6.87156799 L38.668223,8.7151594 L36.6466363,8.7151594 L36.6466363,6.9553676 L40.9478847,5.06987638 Z M42.4103091,10.72635 L38.9693104,12.1090436 C38.6252105,12.444242 38.4961731,12.9051399 38.4961731,13.4079375 C38.4961731,14.5811321 39.1843728,15.0001301 39.8725726,15.0001301 C40.5177598,15.0001301 41.1199346,14.6230319 41.421022,14.4135329 L42.4103091,13.743136 L42.4103091,10.72635 Z" id="Shape"></path>
                                        <path d="M53.6795799,6.70396877 C53.421505,6.57826936 52.7333052,6.20117111 51.8730556,6.20117111 C50.9697934,6.20117111 50.0665312,6.70396877 50.0665312,7.54196487 C50.0665312,8.29616135 50.668706,8.75705921 51.7010056,9.25985686 L53.50753,10.1397528 C55.0989919,10.9358491 55.7441791,11.815745 55.7441791,13.1146389 C55.7441791,15.2096291 54.0236798,15.9638256 51.3138933,16.5504229 C49.8944813,16.5504229 48.3460319,15.8381262 47.7008446,15.5029278 L47.2707198,12.9051399 L48.7761567,12.9051399 L49.5933939,14.8325309 C50.1095437,15.1677293 50.7977435,15.4191282 51.5289557,15.4191282 C52.7763177,15.4191282 53.421505,14.6230319 53.421505,13.6593364 C53.421505,12.7794405 52.9483677,12.3604424 51.7010056,11.7319453 L49.8514688,10.7682498 C48.8191692,10.2654522 47.8728946,9.38555628 47.8728946,8.08666233 C47.8728946,6.49446975 49.421344,5.57267404 52.174143,4.98607677 C53.4645175,4.98607677 54.840917,5.53077424 55.5291167,6.03357189 L55.5291167,8.33806116 L54.2817547,8.33806116 L53.6795799,6.70396877 Z" id="Shape"></path>
                                    </g>
                                    <g id="of" transform="translate(150.113569, 0.418998)">
                                        <path d="M11.3983082,10.6006506 C11.3983082,14.0364346 9.24768404,16.0057254 5.5916229,16.5923227 C2.45171158,16.5923227 0.301087387,14.2040338 0.301087387,11.1034483 C0.301087387,7.62576448 2.45171158,5.69837345 6.10777271,5.06987638 C9.29069652,5.06987638 11.3983082,7.45816526 11.3983082,10.6006506 Z M6.19379768,15.461028 C8.08634697,15.461028 9.0756341,13.5755368 9.0756341,11.1034483 C9.0756341,8.17046194 7.61320965,6.20117111 5.5916229,6.20117111 C3.65606113,6.20117111 2.70978648,8.08666233 2.70978648,10.6006506 C2.666774,13.2403383 4.08618597,15.461028 6.19379768,15.461028 Z" id="Shape"></path>
                                        <path d="M16.7318562,5.65647365 L19.6997176,5.65647365 L19.6997176,6.74586858 L16.7318562,6.74586858 L16.7318562,15.251529 L19.4416427,15.4191282 L19.3126053,16.2990241 L15.6565441,16.2152245 L12.9467576,16.2990241 L12.8177202,15.5029278 L14.4952071,15.2934288 L14.4952071,6.78776838 L12.4306078,6.78776838 L12.4306078,6.41067014 L13.1618201,5.61457385 L14.5382196,5.61457385 L14.5382196,5.40507482 C14.5382196,4.02238126 14.9683444,3.10058556 15.8285941,2.17878985 L17.8071683,0 L20.7750297,0 L20.7750297,1.84359141 L17.7211434,1.84359141 L17.248006,2.47208848 C16.9039062,2.89108653 16.7318562,3.56148341 16.7318562,5.06987638 L16.7318562,5.65647365 L16.7318562,5.65647365 Z" id="Shape"></path>
                                    </g>
                                    <g id="University" transform="translate(40.861860, 0.418998)">
                                        <path d="M10.753121,0.921795706 L10.8821584,0.125699414 L13.8930323,0.209499024 L16.6458313,0.125699414 L16.7748687,0.921795706 L14.753282,1.21509434 L14.753282,10.6006506 C14.753282,13.6174366 13.5059199,15.5867274 8.77454671,16.6761223 C4.12919845,16.6761223 2.45171158,14.2459336 2.45171158,10.5587508 L2.45171158,1.21509434 L0.301087387,0.921795706 L0.430124839,0.125699414 L3.69907361,0.209499024 L6.92500991,0.125699414 L7.05404736,0.921795706 L5.03246061,1.21509434 L5.03246061,10.8939493 C5.03246061,13.743136 6.27982265,15.3772284 8.98960913,15.3772284 C11.4413207,15.3772284 12.8177202,13.7850358 12.8177202,10.8101496 L12.8177202,1.17319453 L10.753121,0.921795706 Z" id="Shape"></path>
                                        <path d="M20.000805,16.2152245 L17.2910185,16.2990241 L17.1619811,15.5029278 L18.7964555,15.2934288 L18.7964555,6.87156799 L17.1619811,6.9972674 L17.0329436,6.20117111 L19.8717676,5.48887443 L20.9040672,5.40507482 L21.0331046,7.33246584 L24.5171158,5.11177619 C27.5279897,5.11177619 28.0441395,6.1173715 28.0441395,8.88275862 L28.0441395,15.2934288 L29.8506638,15.5029278 L29.7216264,16.2990241 L27.0118399,16.2152245 L24.7321782,16.2990241 L24.6031408,15.5029278 L25.8074903,15.2934288 L25.8074903,8.7151594 C25.8074903,7.50006506 25.248328,6.9972674 24.2590409,6.9972674 C23.4418037,6.9972674 22.6245665,7.50006506 21.8073293,8.04476252 L21.1191296,8.50566038 L21.1191296,15.3353286 L22.4095041,15.5448276 L22.2804667,16.3409239 L20.000805,16.2152245 Z" id="Shape"></path>
                                        <path d="M33.5497374,16.2152245 L30.8399509,16.2990241 L30.7109135,15.5029278 L32.3453879,15.2934288 L32.3453879,6.87156799 L30.7109135,6.9972674 L30.581876,6.20117111 L33.4207,5.48887443 L34.6250495,5.40507482 L34.6250495,15.2934288 L36.3885614,15.5029278 L36.2595239,16.2990241 L33.5497374,16.2152245 Z M32.3453879,0.335198439 L34.0658872,0.209499024 L34.7110745,0.335198439 L34.8401119,1.63409239 L34.582037,2.72348731 L32.9045502,2.84918673 L32.2593629,2.72348731 L32.1303255,1.42459336 L32.3453879,0.335198439 Z" id="Shape"></path>
                                        <polygon id="Shape" points="43.0554964 14.7906311 45.9373328 6.45256994 44.8620207 6.20117111 44.9910581 5.40507482 47.0556574 5.48887443 49.0342316 5.40507482 49.1632691 6.20117111 47.6578321 6.45256994 43.7867086 15.9219258 42.0662092 16.6342225 37.9370108 6.45256994 36.4745863 6.20117111 36.6036238 5.40507482 39.3134103 5.48887443 41.8081343 5.40507482 41.9371718 6.20117111 40.3887224 6.45256994 42.9694714 13.1984385"></polygon>
                                        <path d="M51.3999182,10.3911516 C51.3999182,13.0308393 52.8623427,14.8744307 55.3140543,14.8744307 C56.2603289,14.8744307 57.3786535,14.4554327 58.2819157,13.9107352 L58.669028,14.7906311 C57.5507034,15.5448276 56.0452665,16.2152245 54.5398296,16.5923227 C51.6579931,16.5923227 49.0772441,14.6230319 49.0772441,10.9777489 C49.0772441,7.58386467 51.1848558,5.74027326 54.4107921,5.06987638 C57.5507034,5.06987638 58.5830031,6.9972674 58.5830031,9.38555628 L58.5830031,10.3492518 L51.3999182,10.3492518 L51.3999182,10.3911516 Z M56.174304,9.21795706 C56.174304,7.45816526 55.8302041,6.20117111 53.9806673,6.20117111 C52.5182428,6.20117111 51.6149807,7.50006506 51.4429307,9.42745608 L56.174304,9.21795706 Z" id="Shape"></path>
                                        <path d="M63.9165511,8.42186077 L66.6263375,5.1955758 L68.5188868,5.1955758 L68.5188868,7.50006506 L66.755375,7.50006506 C66.1962127,7.62576448 65.1639131,8.37996096 64.5187258,9.13415745 L64.0455885,9.67885491 L64.0455885,15.1677293 L66.5403126,15.3772284 L66.4112751,16.2571243 L62.9702764,16.1733247 L60.3035024,16.2571243 L60.174465,15.461028 L61.8089393,15.251529 L61.8089393,6.82966818 L60.174465,6.9553676 L60.0454275,6.15927131 L62.8842514,5.44697463 L63.8305261,5.36317502 L63.9165511,8.42186077 Z" id="Shape"></path>
                                        <path d="M75.9600465,6.70396877 C75.7019716,6.57826936 75.0137719,6.20117111 74.1535222,6.20117111 C73.2502601,6.20117111 72.3469979,6.70396877 72.3469979,7.54196487 C72.3469979,8.29616135 72.9491727,8.75705921 73.9814723,9.25985686 L75.7879966,10.1397528 C77.3794585,10.9358491 78.0246458,11.815745 78.0246458,13.1146389 C78.0246458,15.2096291 76.3041464,15.9638256 73.5943599,16.5504229 C72.1319355,16.5504229 70.6264985,15.8381262 69.9813113,15.5029278 L69.5511864,12.9051399 L71.0566234,12.9051399 L71.8738606,14.8325309 C72.3900104,15.1677293 73.0782101,15.4191282 73.8094223,15.4191282 C75.0567844,15.4191282 75.7019716,14.6230319 75.7019716,13.6593364 C75.7019716,12.7794405 75.2288343,12.3604424 73.9814723,11.7319453 L72.1319355,10.7682498 C71.0996359,10.2654522 70.1533612,9.38555628 70.1533612,8.08666233 C70.1533612,6.49446975 71.7018106,5.57267404 74.4546096,4.98607677 C75.7449841,4.98607677 77.1213836,5.53077424 77.8095833,6.03357189 L77.8095833,8.33806116 L76.5622213,8.33806116 L75.9600465,6.70396877 Z" id="Shape"></path>
                                        <path d="M82.4979441,16.2152245 L79.7881576,16.2990241 L79.6591202,15.5029278 L81.2935945,15.2934288 L81.2935945,6.87156799 L79.6591202,6.9972674 L79.5300827,6.20117111 L82.3689066,5.48887443 L83.5302437,5.40507482 L83.5302437,15.2934288 L85.2937555,15.5029278 L85.1647181,16.2990241 L82.4979441,16.2152245 Z M81.336607,0.335198439 L83.0571064,0.209499024 L83.7022936,0.335198439 L83.8313311,1.63409239 L83.5732562,2.72348731 L81.8957693,2.84918673 L81.2505821,2.72348731 L81.1215446,1.42459336 L81.336607,0.335198439 Z" id="Shape"></path>
                                        <path d="M94.2403522,21.6621991 L94.2403522,19.3577098 L96.2619389,19.3577098 L98.6276255,15.880026 L97.6813509,16.1733247 L93.7242024,6.45256994 L90.1541662,6.45256994 L90.1541662,13.4917372 C90.1541662,14.162134 90.4122411,14.8744307 91.4015283,14.8744307 C92.089728,14.8744307 92.8209402,14.5392323 93.4661275,14.2459336 L93.8532398,15.0420299 L90.8853784,16.6342225 C88.2186044,16.6342225 87.8745046,15.7124268 87.8745046,13.6174366 L87.8745046,6.74586858 L85.5948429,6.74586858 L85.5948429,6.36877033 L86.4120801,5.57267404 L87.9605295,5.57267404 L87.9605295,4.06428107 L89.508979,2.55588809 L90.1111537,2.55588809 L90.1111537,5.44697463 L97.5523134,5.44697463 L97.6813509,6.24307092 L96.1329015,6.49446975 L98.756663,13.2403383 L98.9287129,14.8325309 L101.853562,6.49446975 L100.77825,6.24307092 L100.907287,5.44697463 L102.971886,5.53077424 L104.950461,5.44697463 L105.079498,6.24307092 L103.574061,6.49446975 L99.7459501,15.9219258 L97.0791761,21.7459987 L94.2403522,21.7459987 L94.2403522,21.6621991 Z" id="Shape"></path>
                                    </g>
                                    <path d="M22.1514292,16.6342225 L19.91478,16.7180221 L19.7857426,15.9219258 L20.9470797,15.7124268 L20.9470797,9.13415745 C20.9470797,7.91906311 20.3879174,7.41626545 19.4416427,7.41626545 C18.7104305,7.41626545 17.8071683,7.91906311 16.9469187,8.46376057 L16.2587189,8.88275862 L16.2587189,15.7124268 L17.5490934,15.9219258 L17.420056,16.7180221 L15.1834068,16.6342225 L12.6886827,16.7180221 L12.5596453,15.9219258 L13.9790573,15.7124268 L13.9790573,1.59219258 L13.1188076,1.717892 L8.30140939,1.63409239 L8.30140939,15.5867274 L11.0111959,15.880026 L10.8821584,16.6761223 L7.05404736,16.5923227 L3.09689884,16.6761223 L2.96786139,15.880026 L5.80668532,15.5867274 L5.80668532,1.63409239 L2.23664916,1.717892 L1.16133706,4.60897853 L0.258074903,4.60897853 L0.258074903,0.544697463 L7.05404736,0.586597267 L12.8607327,0.544697463 L15.3984692,0.251398829 L16.2157064,0.251398829 L16.2157064,7.70956409 L19.6567051,5.53077424 C22.667579,5.53077424 23.1837288,6.62016916 23.1837288,9.5531555 L23.1837288,15.670527 L24.9472407,15.880026 L24.8182032,16.6761223 L22.1514292,16.6342225 Z M28.3022144,10.8101496 C28.3022144,13.4498373 29.7646388,15.2934288 32.2163504,15.2934288 C33.1626251,15.2934288 34.2809497,14.8744307 35.1842118,14.3297332 L35.5713242,15.2096291 C34.4529996,15.9638256 32.9475627,16.6342225 31.4421257,17.0113208 C28.5602893,17.0113208 25.9795403,15.0420299 25.9795403,11.3967469 C25.9795403,8.00286272 28.087152,6.15927131 31.3130883,5.48887443 C34.4529996,5.48887443 35.4852992,7.41626545 35.4852992,9.80455433 L35.4852992,10.7682498 L28.3022144,10.7682498 L28.3022144,10.8101496 Z M33.0335876,9.63695511 C33.0335876,7.87716331 32.6894878,6.62016916 30.8399509,6.62016916 C29.3775265,6.62016916 28.4742643,7.91906311 28.3022144,9.84645413 L33.0335876,9.63695511 Z" id="The"></path>
                                </g>
                                <g id="ShieldTexas">
                                    <path d="M421.656221,40.1795556 C430.42014,43.9733333 438.06709,49.5346667 438.06709,60.916 C438.06709,71.392 430.978625,81.5231111 410.099876,85.8773333 C399.875303,85.8773333 393.001641,82.9457778 387.116068,78.2897778 L384.667326,63.244 L392.443156,63.244 L396.309591,72.7284444 C399.617541,76.8671111 405.717916,79.7555556 411.947173,79.7555556 C421.484379,79.7555556 427.026269,73.7631111 427.026269,65.6151111 C427.026269,58.0275556 422.128785,53.6733333 415.469925,50.7848889 L402.023323,44.8786667 C394.032691,41.4297778 387.459751,36.2995556 387.459751,26.384 C387.459751,14.2266667 398.586492,7.11333333 414.009272,3.88 C421.011815,3.88 428.787645,6.208 434.329536,10.3466667 L434.329536,25.3924444 L428.787645,25.3924444 L425.565616,15.2613333 C422.68727,12.2435556 419.121558,9.78622222 412.462698,9.78622222 C403.655818,9.78622222 398.457611,14.5715556 398.457611,22.0297778 C398.457611,28.1515556 402.79661,31.9453333 408.896985,34.6182222 L421.656221,40.1795556 Z M346.389619,4.78533333 L375.387882,79.0226667 L384.06588,80.2297778 L383.507395,84.1097778 L368.170536,83.7648889 L353.521043,84.1097778 L352.962558,80.2297778 L362.413844,78.764 L354.852815,57.9413333 L327.444087,57.9413333 L320.226742,78.764 L329.892829,80.2297778 L329.334344,84.1097778 L316.016624,83.7648889 L306.909021,84.0235556 L293.934983,83.7648889 L278.039639,84.1097778 L277.481154,80.1004444 L286.93244,78.6346667 L269.662364,50.9573333 L250.716832,78.7208889 L259.824434,80.0573333 L259.265949,84.0666667 L246.291912,83.7217778 L233.876359,84.0666667 L233.317874,80.0573333 L241.995873,78.8502222 L265.96777,45.7408889 L242.983962,10.864 L234.305963,9.65688889 L234.864448,5.77688889 L250.759792,6.208 L266.526255,5.77688889 L267.08474,9.65688889 L257.633455,11.1226667 L273.313997,37.2048889 L290.927756,11.2088889 L281.261669,9.74311111 L281.820154,5.86311111 L294.794191,6.208 L307.768229,5.86311111 L308.326714,9.74311111 L299.648715,10.9502222 L276.879709,42.3782222 L301.538972,78.8071111 L306.866061,79.6262222 L312.193149,78.8933333 L339.730758,6.68222222 L346.389619,4.78533333 Z M329.162503,52.5524444 L352.790717,52.5524444 L340.675887,19.1413333 L329.162503,52.5524444 Z M217.508451,78.4191111 L224.940598,63.3733333 L229.150716,63.3733333 L225.284281,83.9804444 L181.206922,83.6355556 L165.870063,83.9804444 L165.311578,80.1004444 L175.321349,78.6346667 L175.321349,11.1226667 L165.311578,9.65688889 L165.870063,5.77688889 L181.206922,6.12177778 L225.284281,5.77688889 L226.401252,25.8235556 L222.620737,25.8235556 L216.391481,11.3382222 L186.963614,10.9933333 L186.963614,40.6537778 L202.515275,40.1795556 L206.940195,28.4964444 L210.849591,28.4964444 L209.73262,42.4213333 L210.849591,57.4671111 L206.940195,57.4671111 L202.515275,45.784 L186.963614,45.3097778 L186.963614,78.764 L217.508451,78.4191111 Z M95.3720642,5.77688889 L127.248673,6.12177778 L159.211203,5.77688889 L159.211203,25.4786667 L154.872203,25.4786667 L149.759917,11.3382222 L133.134246,11.1226667 L133.134246,78.6346667 L145.893482,80.1004444 L145.334997,83.9804444 L127.334594,83.6355556 L108.689785,83.9804444 L108.1313,80.1004444 L121.449021,78.6346667 L121.449021,11.1226667 L104.82335,11.3382222 L99.7110635,25.4786667 L95.3720642,25.4786667 L95.3720642,5.77688889 Z" id="Texas"></path>
                                    <g id="Shield">
                                        <path d="M61.7340794,54.5786667 L60.7889508,54.7942222 C60.7030301,55.4408889 60.5741489,56.1306667 60.3163866,56.7342222 C61.4333567,56.0444444 62.7221684,55.5702222 64.0539404,55.484 L64.999069,55.3977778 L64.999069,56.3462222 C65.0420294,58.4155556 64.3117028,60.4417778 62.8940099,61.9937778 C61.4763171,63.5457778 59.5860599,64.4942222 57.4810009,64.6666667 L56.6647535,64.7528889 C56.4499515,65.3564444 56.1492288,65.96 55.8055457,66.5204444 C56.7506742,66.1755556 57.6958028,66.0031111 58.6838918,66.0031111 C59.0275749,66.0031111 59.371258,66.0031111 59.7149411,66.0462222 L60.6171093,66.1755556 L60.4452677,67.0808889 C60.0156638,69.1502222 58.8557333,70.9608889 57.1802781,72.2111111 C55.7625853,73.2457778 54.1300905,73.7631111 52.3687145,73.7631111 C52.0250314,73.7631111 51.6813483,73.7631111 51.3376652,73.72 L50.5214178,73.6337778 C50.1777347,74.1942222 49.7910912,74.7115556 49.3185269,75.1857778 C50.6073386,74.9702222 51.982071,75.0995556 53.2279223,75.5306667 L54.0871301,75.8324444 L53.743447,76.6946667 C52.9271996,78.6346667 51.423586,80.1435556 49.5333288,81.0057778 C48.5022795,81.48 47.3853094,81.7386667 46.2253789,81.7386667 C45.3232107,81.7386667 44.3780821,81.5662222 43.5188743,81.2644444 L42.8744685,81.0488889 C41.8004588,81.9542222 40.5975679,82.8595556 38.9221127,84.0235556 C39.6953997,84.5408889 40.5116471,85.1013333 41.4567757,85.7048889 L39.8242809,86.6964444 C38.9221127,86.0928889 38.1058653,85.5324444 37.3755387,85.0582222 C36.6452121,85.5755556 35.8289647,86.0928889 34.9267965,86.6964444 L33.2943017,85.7048889 C34.2394303,85.0582222 35.0556777,84.5408889 35.8289647,84.0235556 C34.1535095,82.8595556 32.9506186,81.9542222 31.8766088,81.0488889 L31.232203,81.2644444 C30.3729952,81.5662222 29.4278667,81.7386667 28.5256985,81.7386667 C27.4087284,81.7386667 26.2917582,81.48 25.2177485,81.0057778 C23.3274914,80.1866667 21.8238778,78.6346667 21.0076304,76.6946667 L20.6639472,75.8324444 L21.523155,75.5306667 C22.7690063,75.0995556 24.1437388,74.9702222 25.4325505,75.1857778 C24.9599862,74.7115556 24.5733427,74.1942222 24.2296596,73.6337778 L23.4134122,73.72 C23.069729,73.7631111 22.7260459,73.7631111 22.3823628,73.7631111 C20.6209869,73.7631111 18.9884921,73.2457778 17.5707992,72.2111111 C15.8523836,70.9608889 14.6924531,69.1502222 14.3058096,67.0808889 L14.1339681,66.1755556 L15.0361362,66.0462222 C15.3798194,66.0031111 15.7235025,66.0031111 16.0671856,66.0031111 C17.0552745,66.0031111 18.0433635,66.1755556 18.9455317,66.5204444 C18.6018486,66.0031111 18.3011258,65.3995556 18.0863239,64.7528889 L17.2700765,64.6666667 C15.1650174,64.4942222 13.2747603,63.5457778 11.8570674,61.9937778 C10.482335,60.4417778 9.70904798,58.4586667 9.75200837,56.3462222 L9.75200837,55.3977778 L10.6541765,55.484 C11.9859486,55.5702222 13.2747603,56.0013333 14.3917304,56.7342222 C14.1769285,56.0875556 14.0050869,55.4408889 13.9191661,54.7942222 L13.1458791,54.5786667 C11.1697012,53.9751111 9.45128564,52.6386667 8.4202363,50.828 C7.38918696,49.0173333 7.04550384,46.9048889 7.51806812,44.8355556 L7.73287007,43.9302222 L8.63503825,44.1888889 C9.6231272,44.5337778 10.5682558,45.008 11.3845032,45.6546667 C11.1697012,44.6631111 11.1697012,43.6284444 11.3845032,42.5937778 C11.7711467,40.5244444 12.9310772,38.7137778 14.6065324,37.4635556 L15.2938986,36.86 L15.7664629,37.636 C16.883433,39.4035556 17.2700765,41.516 16.883433,43.5853333 C16.4967895,45.6115556 15.336859,47.4222222 13.6614038,48.6724444 C14.0050869,49.3622222 14.2198889,50.0951111 14.3058096,50.8711111 C14.7783739,49.4915556 15.6375817,48.2844444 16.7975122,47.336 L17.5278388,46.7324444 L18.0863239,47.5084444 C19.2892148,49.1897778 19.8047395,51.3022222 19.5469771,53.3715556 C19.2892148,55.4408889 18.2581654,57.3377778 16.6256707,58.6742222 L16.5827103,58.7173333 C17.0552745,59.364 17.441918,60.0968889 17.6996804,60.8297778 C17.9144823,59.364 18.4729674,57.9844444 19.418096,56.8204444 L19.976581,56.0875556 L20.6639472,56.7342222 C22.2105213,58.1568889 23.1556498,60.0537778 23.3274914,62.1662222 C23.4993329,64.2786667 22.8549271,66.348 21.5661154,67.9862222 L21.523155,68.0293333 C22.1246005,68.5466667 22.6401252,69.1502222 23.069729,69.84 C22.9838083,68.3742222 23.2415706,66.9084444 23.9289368,65.572 L24.3585407,64.7528889 L25.1747881,65.2271111 C26.9791245,66.3048889 28.3108965,67.9862222 28.912342,70.0124444 C29.470827,72.0386667 29.2989855,74.1511111 28.3538569,76.048 L28.3108965,76.0911111 C29.0412232,76.4791111 29.6426686,76.9964444 30.2011537,77.5568889 C29.8145102,76.1342222 29.7715498,74.6253333 30.1581933,73.2026667 L30.3729952,72.2973333 L31.232203,72.5991111 C33.2513413,73.2888889 34.8838361,74.6684444 35.8719251,76.5222222 C36.8170536,78.2897778 37.074816,80.3591111 36.6022517,82.3422222 C36.860014,82.5146667 37.1177763,82.6871111 37.4184991,82.9026667 C37.6762614,82.7302222 37.9769841,82.5146667 38.2347465,82.3422222 C37.7621822,80.3591111 38.0199445,78.2897778 38.9650731,76.5222222 C39.9961224,74.6684444 41.6286172,73.2888889 43.6047951,72.5991111 L44.4640029,72.2973333 L44.6788049,73.2026667 C45.0654484,74.6684444 45.022488,76.1342222 44.6358445,77.5568889 C45.1513691,76.9964444 45.795775,76.4791111 46.4831412,76.0911111 L46.4831412,76.048 C45.5380126,74.1511111 45.3232107,72.0386667 45.9246561,70.0124444 C46.5261016,67.9862222 47.8578737,66.3048889 49.66221,65.2271111 L50.4784574,64.7528889 L50.9080613,65.572 C51.5954275,66.9084444 51.8531899,68.3742222 51.7672691,69.84 C52.196873,69.1933333 52.7123977,68.5466667 53.3138431,68.0293333 L53.2708827,67.9862222 C51.982071,66.348 51.3376652,64.2786667 51.5095068,62.2093333 C51.6813483,60.14 52.6264769,58.2 54.1730509,56.7773333 L54.8604171,56.1306667 L55.4189022,56.8635556 C56.3640307,58.0706667 56.9225158,59.4502222 57.1373177,60.8728889 C57.3950801,60.0968889 57.7817236,59.4071111 58.2542879,58.7604444 L58.2113275,58.7173333 C56.6217931,57.3808889 55.5477833,55.484 55.290021,53.4146667 C54.9892983,51.3453333 55.5477833,49.276 56.7506742,47.5515556 L57.3091593,46.7755556 L58.0394859,47.3791111 C59.1994164,48.3275556 60.0156638,49.5346667 60.5311885,50.9142222 C60.6600697,50.1813333 60.8748716,49.4053333 61.1755943,48.7155556 C59.5001392,47.4653333 58.3402086,45.6977778 57.9535651,43.6284444 C57.5669216,41.5591111 57.9535651,39.4466667 59.0705353,37.6791111 L59.5430995,36.9031111 L60.2734262,37.4635556 C61.9488813,38.7137778 63.1088119,40.5244444 63.4954554,42.5937778 C63.6672969,43.6284444 63.6672969,44.6631111 63.4954554,45.6546667 C64.3117028,45.008 65.2138709,44.4906667 66.2449203,44.1888889 L67.1470885,43.9302222 L67.3618904,44.8355556 C67.8344547,46.9048889 67.4907716,49.0173333 66.4597222,50.828 C65.4286729,52.6386667 63.7532177,53.9751111 61.7340794,54.5786667 Z M61.691119,60.8297778 C62.5932872,59.8813333 63.1517722,58.6742222 63.3236138,57.3377778 C62.0777625,57.6395556 60.9607924,58.2862222 60.0586242,59.2777778 C59.156456,60.2693333 58.597971,61.4764444 58.4261294,62.7697778 C59.6719807,62.468 60.8319112,61.8213333 61.691119,60.8297778 Z M57.0084366,53.2422222 C57.1802781,54.5355556 57.7387632,55.7426667 58.597971,56.7342222 C59.1994164,55.5702222 59.4142184,54.2337778 59.2423768,52.9404444 C59.0705353,51.6471111 58.5120502,50.44 57.6528424,49.4484444 C57.051397,50.6124444 56.836595,51.9488889 57.0084366,53.2422222 Z M59.5860599,43.3266667 C59.8438223,44.62 60.4882281,45.784 61.3903963,46.7324444 C61.905921,45.5253333 62.0777625,44.1888889 61.8200002,42.8955556 C61.5622378,41.6022222 60.917832,40.3951111 60.0156638,39.4897778 C59.5001392,40.6968889 59.3282976,42.0333333 59.5860599,43.3266667 Z M65.8582768,46.2151111 C64.6553859,46.7755556 63.7102573,47.6808889 63.0658515,48.8017778 C62.4214456,49.9657778 62.1207229,51.2591111 62.2066437,52.5524444 C63.3665742,51.992 64.3546631,51.0866667 64.999069,49.9657778 C65.6434748,48.8017778 65.9441976,47.5084444 65.8582768,46.2151111 Z M56.27811,70.8315556 C57.3521197,70.0555556 58.1254067,68.9777778 58.5550106,67.7706667 C57.2661989,67.8137778 56.0203476,68.2448889 54.9463379,69.0208889 C53.9152886,69.7968889 53.0990412,70.8315556 52.6694373,72.0817778 C53.9582489,72.0386667 55.2041002,71.6075556 56.27811,70.8315556 Z M53.2279223,62.3817778 C53.1420015,63.7182222 53.4427243,65.0115556 54.0441697,66.1324444 C54.8604171,65.0977778 55.3759418,63.8475556 55.4618626,62.5542222 C55.5907437,61.2177778 55.290021,59.9244444 54.6456152,58.8035556 C53.8293678,59.8382222 53.3138431,61.0453333 53.2279223,62.3817778 Z M49.8340516,71.2195556 C50.2206951,69.9693333 50.1777347,68.6328889 49.7910912,67.3826667 C48.8030022,68.2017778 48.0726756,69.3226667 47.6860321,70.5728889 C47.2993886,71.8231111 47.342349,73.1595556 47.7289925,74.4097778 C48.7170814,73.5906667 49.4474081,72.4697778 49.8340516,71.2195556 Z M51.8102295,76.9102222 C50.5214178,76.6946667 49.1896457,76.8671111 48.0297152,77.3844444 C46.8268243,77.9448889 45.8387354,78.8071111 45.1513691,79.928 C45.5380126,79.9711111 45.9246561,80.0142222 46.3112996,80.0142222 C47.2134678,80.0142222 48.115636,79.8417778 48.9318834,79.4537778 C50.1347743,78.8933333 51.1228632,78.0311111 51.8102295,76.9102222 Z M40.5546075,77.4275556 C39.9102016,78.5915556 39.6524393,79.8848889 39.8242809,81.1782222 C40.9842114,80.5746667 41.9293399,79.6262222 42.5307854,78.4622222 C43.1322308,77.2982222 43.3899932,76.0048889 43.261112,74.7115556 C42.1441419,75.3151111 41.1990133,76.2635556 40.5546075,77.4275556 Z M25.9910355,79.4537778 C27.150966,79.9711111 28.4827381,80.1435556 29.7715498,79.928 C29.0841835,78.8071111 28.0960946,77.9017778 26.8932037,77.3844444 C25.6903128,76.824 24.4015011,76.6946667 23.1126894,76.9102222 C23.8000557,78.0311111 24.7881446,78.9364444 25.9910355,79.4537778 Z M25.045907,71.2195556 C25.4325505,72.4697778 26.1628771,73.5906667 27.150966,74.4097778 C27.5376095,73.1595556 27.5805699,71.8231111 27.1939264,70.5728889 C26.8072829,69.3226667 26.0769563,68.2017778 25.0888673,67.3826667 C24.7022238,68.6328889 24.6592634,69.9693333 25.045907,71.2195556 Z M31.6188465,74.7546667 C31.4899653,76.048 31.7477277,77.3413333 32.3491731,78.4622222 C32.9506186,79.6262222 33.8957471,80.5746667 35.0556777,81.1782222 C35.1845588,79.8848889 34.9267965,78.5915556 34.325351,77.4275556 C33.7239056,76.3066667 32.778777,75.3582222 31.6188465,74.7546667 Z M18.6018486,70.8315556 C19.6758583,71.6075556 20.9217096,71.9955556 22.1675609,72.0817778 C21.737957,70.8315556 20.96467,69.7968889 19.8906602,69.0208889 C18.8166505,68.2448889 17.5707992,67.8137778 16.2819875,67.7706667 C16.7545518,68.9777778 17.5278388,70.0555556 18.6018486,70.8315556 Z M20.2343434,58.8466667 C19.5899375,59.9675556 19.3321752,61.2608889 19.3751356,62.5973333 C19.5040167,63.9337778 19.976581,65.1408889 20.7928284,66.1755556 C21.4372343,65.0546667 21.737957,63.7613333 21.6520362,62.4248889 C21.523155,61.0884444 21.0505907,59.8813333 20.2343434,58.8466667 Z M13.1888395,60.8297778 C14.0480473,61.8213333 15.2079778,62.5111111 16.4538291,62.7697778 C16.2390271,61.4764444 15.6805421,60.2262222 14.8213343,59.2777778 C13.9621265,58.3293333 12.802196,57.6395556 11.5563447,57.3377778 C11.7711467,58.6311111 12.3296317,59.8382222 13.1888395,60.8297778 Z M12.7162752,52.5524444 C12.8451564,51.2591111 12.5444337,49.9657778 11.8570674,48.8017778 C11.2126616,47.6808889 10.2245726,46.7755556 9.06464214,46.2151111 C8.97872136,47.5084444 9.27944409,48.8448889 9.92384992,49.9657778 C10.5682558,51.0866667 11.5563447,51.992 12.7162752,52.5524444 Z M13.0599583,42.8955556 C12.8451564,44.1888889 12.9740376,45.5253333 13.4895622,46.6893333 C14.4346908,45.7408889 15.0361362,44.5768889 15.2938986,43.2835556 C15.5087005,41.9902222 15.3798194,40.6968889 14.8642947,39.4897778 C13.9191661,40.4382222 13.3177207,41.6022222 13.0599583,42.8955556 Z M15.6805421,52.9404444 C15.5087005,54.2337778 15.7235025,55.5702222 16.3249479,56.7342222 C17.1841557,55.7426667 17.7426408,54.5355556 17.9144823,53.2422222 C18.0863239,51.9057778 17.8715219,50.6124444 17.2700765,49.4484444 C16.4108687,50.44 15.8523836,51.6471111 15.6805421,52.9404444 Z" id="Laurel"></path>
                                        <path d="M21.6090758,46.3013333 C21.523155,46.3013333 21.523155,46.2582222 21.523155,46.172 C21.5661154,46.1288889 21.6090758,46.1288889 21.6520362,46.1288889 L33.6809452,46.1288889 L37.4184991,34.6182222 C37.4184991,34.5751111 37.4614595,34.532 37.5044198,34.532 C37.5473802,34.532 37.5903406,34.5751111 37.5903406,34.6182222 L41.3278945,46.1288889 L53.3997639,46.1288889 C53.4427243,46.1288889 53.4856847,46.1288889 53.4856847,46.172 C53.528645,46.2582222 53.4856847,46.3013333 53.4427243,46.3013333 L43.6907159,53.4146667 L47.4282698,64.9684444 C47.4712302,64.9684444 47.4712302,65.0115556 47.4282698,65.0546667 C47.4282698,65.0546667 47.3853094,65.0546667 47.3853094,65.0546667 L37.5473802,57.8982222 L27.7094511,65.0546667 C27.7094511,65.0546667 27.6664907,65.0546667 27.6664907,65.0546667 C27.6235303,65.0546667 27.6235303,65.0115556 27.6235303,65.0115556 L31.3610842,53.4146667 L21.6090758,46.3013333 Z M35.2704796,48.2844444 L29.2130647,48.7155556 L33.8957471,52.5955556 L32.3921335,58.4586667 L37.5044198,55.2253333 L42.6167062,58.4586667 L41.1130925,52.5955556 L45.7528146,48.7155556 L39.7383601,48.3275556 L37.5044198,42.68 L35.2704796,48.2844444 Z" id="Star"></path>
                                        <path d="M56.7077139,16.2097778 L56.7077139,16.1666667 L55.1181795,16.1666667 L55.1181795,19.7017778 L56.7077139,19.7017778 L56.7077139,22.2884444 L55.1181795,22.2884444 L55.1181795,27.1168889 L54.0441697,27.1168889 C51.6383879,27.1168889 49.2326061,26.7288889 46.9127451,26.384 C44.9795276,26.0822222 43.1322308,25.7804444 41.5426964,25.7804444 C40.2538848,25.7804444 39.3087562,25.9528889 38.5784296,26.3408889 L36.5163309,26.3408889 C35.7860043,25.9528889 34.8408757,25.7804444 33.552064,25.7804444 C32.00549,25.7804444 30.1581933,26.0822222 28.1820154,26.384 C25.9051147,26.7288889 23.4993329,27.1168889 21.0505907,27.1168889 L19.976581,27.1168889 L19.976581,22.2884444 L18.3870466,22.2884444 L18.3870466,19.7017778 L19.976581,19.7017778 L19.976581,16.1666667 L18.3870466,16.1666667 L18.3870466,13.58 L19.976581,13.58 L19.976581,9.13955556 L21.0505907,9.13955556 C23.3274914,9.13955556 25.604392,8.83777778 27.7953719,8.49288889 C29.7715498,8.23422222 31.6618069,7.93244444 33.4231829,7.93244444 C35.0556777,7.93244444 36.4304101,8.19111111 37.5473802,8.70844444 C38.6643504,8.19111111 40.0390828,7.93244444 41.6715776,7.93244444 C43.3899932,7.93244444 45.2802503,8.19111111 47.2993886,8.49288889 C49.4903685,8.79466667 51.7672691,9.13955556 54.0441697,9.13955556 L55.1181795,9.13955556 L55.1181795,13.6231111 L56.7077139,13.6231111 L56.7077139,16.2097778 Z M27.7953719,24.2284444 C29.8145102,23.9266667 31.7477277,23.6248889 33.5091036,23.6248889 C34.4542322,23.6248889 35.2704796,23.7111111 36.0008062,23.8835556 L36.3874497,12.4591111 L36.3874497,10.5622222 C35.6141627,10.2173333 34.6260738,10.0448889 33.3802225,10.0448889 C31.7906881,10.0448889 29.9863517,10.3035556 28.0531342,10.6053333 C26.3347186,10.864 24.6163031,11.0795556 22.8119667,11.2088889 L22.3394024,24.8751111 C24.1437388,24.7888889 25.9910355,24.5302222 27.7953719,24.2284444 Z M47.2134678,24.2284444 C49.0178042,24.5302222 50.8651009,24.7888889 52.6694373,24.8751111 L52.196873,11.2088889 C50.3925366,11.0795556 48.6311607,10.864 46.9557055,10.6053333 C45.022488,10.3035556 43.2181516,10.0448889 41.6286172,10.0448889 C40.3827659,10.0448889 39.4376374,10.2173333 38.62139,10.5622222 L38.62139,12.4591111 L39.0080335,23.8835556 C39.7383601,23.7111111 40.5546075,23.6248889 41.499736,23.6248889 C43.261112,23.6248889 45.1943295,23.9266667 47.2134678,24.2284444 Z M26.5065602,16.7702222 L26.5495206,16.7702222 L26.5495206,18.5377778 C25.8621543,18.624 25.1747881,18.7102222 24.4874219,18.7964444 L24.5303823,17.0288889 C25.1747881,16.9426667 25.8621543,16.8564444 26.5065602,16.7702222 Z M29.3849063,12.416 C31.1462822,12.1573333 32.8646978,11.9848889 34.4112718,12.1573333 L34.3683114,13.8817778 C32.9076582,13.7524444 31.232203,13.9248889 29.3849063,14.1835556 L29.3849063,12.416 Z M28.0960946,20.5208889 L28.1820154,20.5208889 L28.1820154,22.3315556 C28.139055,22.3315556 28.139055,22.3315556 28.0960946,22.3315556 C26.8932037,22.504 25.6473524,22.6764444 24.4015011,22.8057778 L24.4444615,21.0382222 C25.5614316,20.9088889 26.6784017,20.7364444 27.7953719,20.564 C27.8812926,20.564 27.9672134,20.5208889 28.0960946,20.5208889 Z M29.3849063,20.3484444 C31.0603615,20.1328889 32.6498959,19.9604444 34.1105491,20.0466667 L34.0675887,21.7711111 C32.6928562,21.6848889 31.1033218,21.8573333 29.3849063,22.116 L29.3849063,20.3484444 Z M27.8383323,16.5977778 C30.1152329,16.2528889 32.3062127,15.9511111 34.2823906,16.0804444 L34.2394303,17.8048889 C32.4780543,17.6755556 30.3729952,17.9773333 28.0531342,18.3222222 C27.9672134,18.3653333 27.924253,18.3653333 27.8383323,18.3653333 L27.8383323,16.5977778 Z M44.8506464,12.3297778 L44.8506464,12.3297778 L44.8506464,14.0973333 C43.3040724,13.8817778 41.8863796,13.7955556 40.6405283,13.8817778 L40.5975679,12.1573333 C41.9293399,12.028 43.3470328,12.1573333 44.8506464,12.3297778 Z M50.3495762,13.0626667 L50.3925366,14.8302222 C49.2326061,14.7008889 48.115636,14.5284444 46.9986659,14.356 C46.6979432,14.3128889 46.4401808,14.2697778 46.1394581,14.2266667 L46.1394581,12.4591111 C46.5261016,12.5453333 46.8697847,12.5884444 47.2564282,12.6315556 C48.2874776,12.804 49.3185269,12.9333333 50.3495762,13.0626667 Z M44.5069633,16.2528889 L44.5069633,16.2528889 L44.5069633,17.9773333 C43.1751912,17.8048889 41.9293399,17.7186667 40.8123698,17.8048889 L40.7694094,16.0804444 C41.9293399,16.0373333 43.1751912,16.1235556 44.5069633,16.2528889 Z M50.4784574,17.0288889 L50.5214178,18.7964444 C49.3185269,18.6671111 48.1585964,18.4946667 46.9986659,18.3222222 C46.6120224,18.2791111 46.1824185,18.1928889 45.795775,18.1497778 L45.795775,16.3822222 C46.2683393,16.4684444 46.7838639,16.5115556 47.2564282,16.5977778 C48.3304379,16.7271111 49.4044477,16.8995556 50.4784574,17.0288889 Z M47.0845867,22.2884444 L47.127547,22.2884444 L47.127547,20.4777778 C47.2134678,20.5208889 47.2564282,20.5208889 47.2993886,20.5208889 C48.3733983,20.6933333 49.4903685,20.8657778 50.650299,20.9951111 L50.6932594,22.7626667 C49.4474081,22.6333333 48.2445172,22.4608889 47.0845867,22.2884444 Z M45.795775,20.3484444 L45.795775,20.3484444 L45.795775,22.0728889 C44.034399,21.8142222 42.3589438,21.6417778 40.941251,21.728 L40.8982906,20.0035556 C42.4019042,19.9173333 44.0773594,20.0897778 45.795775,20.3484444 Z M28.0960946,12.5884444 L28.0960946,14.356 C28.0531342,14.356 28.0531342,14.356 28.0101738,14.356 C26.8932037,14.5284444 25.7762336,14.7008889 24.6163031,14.8302222 L24.6592634,13.0626667 C25.6903128,12.9333333 26.7213621,12.804 27.7524115,12.6315556 C27.8812926,12.6315556 27.9672134,12.6315556 28.0960946,12.5884444 Z" id="Book"></path>
                                        <path d="M75.0088397,2.716 L75.0088397,33.9715556 L75.0088397,34.532 C75.0088397,46.3013333 73.8489092,61.4764444 64.784267,74.7977778 C62.8940099,77.5137778 60.7889508,80.0573333 58.2542879,82.5146667 C58.2542879,82.5146667 58.2113275,82.5577778 58.2113275,82.5577778 C53.2708827,87.3 46.7838639,91.7835556 37.5044198,96.9568889 C28.2249758,91.7835556 21.6949966,87.3 16.7975122,82.5577778 C16.7975122,82.5577778 16.7545518,82.5146667 16.7545518,82.5146667 C14.2198889,80.0573333 12.0718694,77.5568889 10.2245726,74.7977778 C1.15993051,61.5195556 0,46.3013333 0,34.532 L0,30.652 L0,2.716 L1.50361362,2.54355556 C1.71841557,2.50044444 21.8238778,0 37.5044198,0 C53.1849619,0 73.2904241,2.50044444 73.5052261,2.54355556 L75.0088397,2.716 Z M61.9488813,72.8577778 C70.412078,60.3986667 71.5290482,45.9133333 71.5290482,34.6613333 L37.5044198,32.7644444 L3.43683114,34.6613333 C3.43683114,45.9133333 4.55380126,60.3986667 13.0599583,72.8577778 C14.8213343,75.4013333 16.8404726,77.8155556 19.2462544,80.1435556 C26.7213621,87.0413333 35.1415984,90.8351111 37.5044198,91.8266667 C39.8672413,90.8351111 48.2874776,87.0413333 55.7625853,80.1435556 C58.1683671,77.8155556 60.1875054,75.4444444 61.9488813,72.8577778 Z M5.28412788,5.60444444 L3.47979153,30.652 L37.5044198,30.652 L71.5290482,30.652 L69.7676722,5.60444444 C63.4095346,4.91466667 49.1896457,3.492 37.5044198,3.492 C25.819194,3.492 11.5993051,4.91466667 5.28412788,5.60444444 Z" id="ShieldOutline"></path>
                                    </g>
                                </g>
                            </g>
                        </g>
                    </g>
                </g>
            </g>
        </g>
    </g>
</svg>